<svg xmlns="http://www.w3.org/2000/svg" xmlns:xlink="http://www.w3.org/1999/xlink" fill="none" version="1.1" width="18.70212745666504" height="21.064599990844727" viewBox="0 0 18.70212745666504 21.064599990844727"><g style="mix-blend-mode:passthrough"><path d="M17.6934,21.0338C17.4061,21.0335,17.1329,20.9066,16.9434,20.6855C16.9434,20.6855,13.0834,16.209,13.0834,16.209C10.7017,17.746,7.73304,17.9803,5.14955,16.8353C2.56606,15.6902,0.700378,13.3133,0.163376,10.4826C-0.542027,6.82952,1.07918,3.11798,4.20823,1.22247C7.33728,-0.67304,11.2933,-0.34006,14.0783,2.05325C16.8634,4.44655,17.8714,8.37939,16.5934,11.8656C16.3973,12.3945,15.8198,12.6605,15.3034,12.4597C14.787,12.2589,14.5273,11.6672,14.7234,11.1382C15.4726,9.09652,15.2094,6.80948,14.0173,5.00217C12.8253,3.19485,10.8521,2.09141,8.72338,2.04165C6.73819,1.97916,4.83528,2.8556,3.56338,4.41824C1.49424,6.95238,1.5266,10.6503,3.63974,13.146C5.75287,15.6418,9.32191,16.1973,12.0634,14.4573C12.8973,13.955,13.9626,14.1362,14.5934,14.8875C14.5934,14.8875,18.4534,19.3641,18.4534,19.3641C18.7124,19.6662,18.775,20.0955,18.6134,20.462C18.4518,20.8284,18.0959,21.0641,17.7034,21.0646C17.7034,21.0646,17.6934,21.0338,17.6934,21.0338C17.6934,21.0338,17.6934,21.0338,17.6934,21.0338Z" fill-rule="evenodd" fill="#0F1E36" fill-opacity="0.5"/></g></svg>